<?xml version="1.0" encoding="utf-8"?>
<!-- Generator: Adobe Illustrator 17.0.2, SVG Export Plug-In . SVG Version: 6.00 Build 0)  -->
<!DOCTYPE svg PUBLIC "-//W3C//DTD SVG 1.1//EN" "http://www.w3.org/Graphics/SVG/1.1/DTD/svg11.dtd">
<svg version="1.1" id="Layer_1" xmlns="http://www.w3.org/2000/svg" xmlns:xlink="http://www.w3.org/1999/xlink" x="0px" y="0px"
	 width="50px" height="50px" viewBox="0 0 50 50" enable-background="new 0 0 50 50" xml:space="preserve">
<g>
	<path fill="#2296FC" d="M25,0C11.192,0,0,11.192,0,25s11.192,25,25,25c13.807-0.001,25-11.192,25-25S38.807,0,25,0z M24.952,9.5
		c2.207,0,4,1.793,4,4c0,2.205-1.793,4-4,4c-2.207,0.001-4-1.795-4-4C20.952,11.293,22.745,9.5,24.952,9.5z M9.96,21.512
		c0-2.207,1.793-4,4-4s4,1.793,4,4c0,2.205-1.793,4-4,4C11.753,25.513,9.96,23.716,9.96,21.512z M18.174,38.5
		c-2.207,0.001-4-1.795-4-4c0-2.207,1.793-4,4-4s4,1.793,4,4C22.174,36.705,20.381,38.5,18.174,38.5z M25,29
		c-2.207,0.001-4-1.795-4-4c0-2.207,1.793-4,4-4s4,1.793,4,4C29,27.205,27.207,29,25,29z M31.85,38.5c-2.207,0.001-4-1.795-4-4
		c0-2.207,1.793-4,4-4s4,1.793,4,4C35.85,36.705,34.057,38.5,31.85,38.5z M36.04,25.512c-2.207,0.001-4-1.795-4-4
		c0-2.207,1.793-4,4-4s4,1.793,4,4C40.04,23.716,38.247,25.512,36.04,25.512z"/>
</g>
</svg>
