<?xml version="1.0" encoding="UTF-8" standalone="no"?>
<!-- Generator: Adobe Illustrator 17.0.2, SVG Export Plug-In . SVG Version: 6.00 Build 0)  -->

<svg
   xmlns:dc="http://purl.org/dc/elements/1.1/"
   xmlns:cc="http://creativecommons.org/ns#"
   xmlns:rdf="http://www.w3.org/1999/02/22-rdf-syntax-ns#"
   xmlns:svg="http://www.w3.org/2000/svg"
   xmlns="http://www.w3.org/2000/svg"
   xmlns:sodipodi="http://sodipodi.sourceforge.net/DTD/sodipodi-0.dtd"
   xmlns:inkscape="http://www.inkscape.org/namespaces/inkscape"
   version="1.1"
   id="Layer_1"
   x="0px"
   y="0px"
   width="50px"
   height="50px"
   viewBox="0 0 50 50"
   enable-background="new 0 0 50 50"
   xml:space="preserve"
   inkscape:version="0.48.4 r9939"
   sodipodi:docname="icon16-off.svg"><metadata
     id="metadata11"><rdf:RDF><cc:Work
         rdf:about=""><dc:format>image/svg+xml</dc:format><dc:type
           rdf:resource="http://purl.org/dc/dcmitype/StillImage" /></cc:Work></rdf:RDF></metadata><defs
     id="defs9" /><sodipodi:namedview
     pagecolor="#ffffff"
     bordercolor="#666666"
     borderopacity="1"
     objecttolerance="10"
     gridtolerance="10"
     guidetolerance="10"
     inkscape:pageopacity="0"
     inkscape:pageshadow="2"
     inkscape:window-width="821"
     inkscape:window-height="480"
     id="namedview7"
     showgrid="false"
     inkscape:zoom="4.72"
     inkscape:cx="25"
     inkscape:cy="25"
     inkscape:window-x="0"
     inkscape:window-y="0"
     inkscape:window-maximized="0"
     inkscape:current-layer="g3" /><g
     id="g3"><path
       fill="#2296FC"
       d="M25,0C11.192,0,0,11.192,0,25s11.192,25,25,25c13.807-0.001,25-11.192,25-25S38.807,0,25,0z M24.952,9.5   c2.207,0,4,1.793,4,4c0,2.205-1.793,4-4,4c-2.207,0.001-4-1.795-4-4C20.952,11.293,22.745,9.5,24.952,9.5z M9.96,21.512   c0-2.207,1.793-4,4-4s4,1.793,4,4c0,2.205-1.793,4-4,4C11.753,25.513,9.96,23.716,9.96,21.512z M18.174,38.5   c-2.207,0.001-4-1.795-4-4c0-2.207,1.793-4,4-4s4,1.793,4,4C22.174,36.705,20.381,38.5,18.174,38.5z M25,29   c-2.207,0.001-4-1.795-4-4c0-2.207,1.793-4,4-4s4,1.793,4,4C29,27.205,27.207,29,25,29z M31.85,38.5c-2.207,0.001-4-1.795-4-4   c0-2.207,1.793-4,4-4s4,1.793,4,4C35.85,36.705,34.057,38.5,31.85,38.5z M36.04,25.512c-2.207,0.001-4-1.795-4-4   c0-2.207,1.793-4,4-4s4,1.793,4,4C40.04,23.716,38.247,25.512,36.04,25.512z"
       id="path5"
       style="fill:#cccccc" /></g></svg>